<svg width="36" height="10" viewBox="0 0 36 10" fill="none" xmlns="http://www.w3.org/2000/svg">
	<path d="M0 9.60209V0.397916H2.58544V9.60209H0ZM5.5587 9.60209V0.397916H8.14414V9.60209H5.5587ZM1.40906 5.98247V3.83656H6.56702V5.98247H1.40906ZM9.67015 9.60209V0.397916H12.2556V9.60209H9.67015ZM11.7644 9.60209V7.45617H16.7026V9.60209H11.7644ZM11.7644 5.95662V3.86241H16.2243V5.95662H11.7644ZM11.7644 2.54384V0.397916H16.625V2.54384H11.7644ZM20.0206 5.93076V4.14681H21.5848C21.9382 4.14681 22.2053 4.06062 22.3863 3.88826C22.5759 3.71591 22.6707 3.48752 22.6707 3.20312C22.6707 2.91872 22.5759 2.69034 22.3863 2.51798C22.2053 2.34562 21.9382 2.25944 21.5848 2.25944H20.0206V0.397916H21.9984C22.6363 0.397916 23.1964 0.514261 23.679 0.746954C24.1617 0.979643 24.5408 1.30282 24.8166 1.71649C25.0924 2.13016 25.2302 2.61278 25.2302 3.16434C25.2302 3.7159 25.088 4.19852 24.8036 4.61219C24.5279 5.02586 24.1401 5.34904 23.6402 5.58173C23.1404 5.81442 22.55 5.93076 21.8692 5.93076H20.0206ZM17.9264 9.60209V0.397916H20.5118V9.60209H17.9264ZM22.8904 9.60209L20.3825 5.67222L22.7094 5.16806L25.8249 9.60209H22.8904ZM31.036 9.78307C30.312 9.78307 29.6442 9.66245 29.0322 9.42111C28.429 9.1798 27.899 8.84369 27.4422 8.41279C26.9941 7.98188 26.6451 7.47341 26.3951 6.88738C26.1452 6.30135 26.0202 5.66791 26.0202 4.98708C26.0202 4.29763 26.1409 3.6642 26.3822 3.08678C26.6321 2.50936 26.9812 2.0052 27.4293 1.57429C27.8774 1.14339 28.4032 0.81159 29.0064 0.578896C29.6183 0.337588 30.2862 0.216934 31.0101 0.216934C31.734 0.216934 32.3977 0.337588 33.0009 0.578896C33.6128 0.81159 34.1429 1.14339 34.5909 1.57429C35.0391 2.0052 35.3839 2.51367 35.6251 3.0997C35.8751 3.67712 36 4.31056 36 5C36 5.68084 35.8751 6.31427 35.6251 6.9003C35.3839 7.47772 35.0391 7.98619 34.5909 8.42571C34.1429 8.85662 33.6171 9.19272 33.0138 9.43404C32.4106 9.66673 31.7513 9.78307 31.036 9.78307ZM31.0101 7.50788C31.4928 7.50788 31.9107 7.40446 32.264 7.19763C32.6174 6.99079 32.8889 6.69777 33.0785 6.31858C33.2681 5.93938 33.3628 5.49554 33.3628 4.98708C33.3628 4.60788 33.3069 4.26746 33.1948 3.96583C33.0914 3.65557 32.9363 3.39272 32.7294 3.17727C32.5226 2.9532 32.2727 2.78515 31.9796 2.67311C31.6952 2.55246 31.3721 2.49213 31.0101 2.49213C30.5275 2.49213 30.1096 2.59554 29.7562 2.80238C29.4028 3.00059 29.1314 3.28931 28.9417 3.6685C28.7522 4.03909 28.6573 4.47861 28.6573 4.98708C28.6573 5.37489 28.7091 5.72393 28.8125 6.03418C28.9245 6.34443 29.0839 6.6116 29.2908 6.83567C29.4976 7.05112 29.7432 7.21918 30.0276 7.33983C30.3207 7.45187 30.6481 7.50788 31.0101 7.50788Z" fill="#ffffff80"/>
</svg>